<?xml version="1.0" encoding="UTF-8"?>
<!DOCTYPE svg PUBLIC "-//W3C//DTD SVG 1.1//EN" "http://www.w3.org/Graphics/SVG/1.1/DTD/svg11.dtd">
<!-- Creator: CorelDRAW -->
<svg xmlns="http://www.w3.org/2000/svg" xml:space="preserve" width="4.87125in" height="1.5957in" version="1.1" style="shape-rendering:geometricPrecision; text-rendering:geometricPrecision; image-rendering:optimizeQuality; fill-rule:evenodd; clip-rule:evenodd"
viewBox="0 0 4417.8 1447.16"
 xmlns:xlink="http://www.w3.org/1999/xlink"
 xmlns:xodm="http://www.corel.com/coreldraw/odm/2003">
 <defs>
  <style type="text/css">
   <![CDATA[
    .fil0 {fill:#0ADCD9}
    .fil1 {fill:#084268;fill-rule:nonzero}
    .fil2 {fill:#084268;fill-rule:nonzero}
   ]]>
  </style>
 </defs>
 <g id="Layer_x0020_1">
  <metadata id="CorelCorpID_0Corel-Layer"/>
  <path class="fil0" d="M442.6 783.89c21.81,0 39.5,17.68 39.5,39.49 0,21.82 -17.68,39.5 -39.5,39.5 -20.36,0 -37.11,-15.39 -39.26,-35.17l-403.34 0 0 -9.03 403.39 0c2.32,-19.6 19,-34.79 39.22,-34.79z"/>
  <path class="fil0" d="M487.64 913.44c21.92,0 39.69,17.77 39.69,39.69 0,21.92 -17.77,39.69 -39.69,39.69 -20.45,0 -37.29,-15.47 -39.45,-35.34l-216.97 0 0 -9.07 217.02 0c2.34,-19.69 19.08,-34.96 39.4,-34.96z"/>
  <path class="fil0" d="M419.41 605.9c21.81,0 39.49,17.68 39.49,39.49 0,21.82 -17.68,39.5 -39.49,39.5 -20.36,0 -37.11,-15.39 -39.26,-35.17l-236.42 0 0 -9.03 236.46 0c2.33,-19.6 19,-34.79 39.22,-34.79z"/>
  <path class="fil0" d="M724.1 480.9c24.3,0 44.01,19.7 44.01,44.01 0,24.31 -19.7,44.01 -44.01,44.01 -22.68,0 -41.35,-17.15 -43.75,-39.19l-381.19 0 0 -10.06 381.24 0c2.59,-21.83 21.16,-38.77 43.7,-38.77z"/>
  <path class="fil0" d="M578.58 391.19c20.47,0 37.05,16.59 37.05,37.06 0,20.47 -16.59,37.05 -37.05,37.05 -19.1,0 -34.82,-14.44 -36.84,-33l-392.57 0 0 -8.47 392.61 0c2.18,-18.39 17.82,-32.65 36.79,-32.65z"/>
  <path class="fil0" d="M379.33 280.51c-20.47,0 -37.06,16.59 -37.06,37.05 0,20.47 16.59,37.06 37.06,37.06 19.1,0 34.81,-14.44 36.83,-33l392.57 0 0 -8.47 -392.61 0c-2.18,-18.38 -17.82,-32.64 -36.79,-32.64z"/>
  <circle class="fil0" cx="295.07" cy="524.45" r="35.65"/>
  <rect class="fil0" x="383.97" y="954.69" width="19.22" height="492.47"/>
  <path class="fil0" d="M702.91 0c344.89,0 624.49,279.59 624.49,624.48 0,344.89 -279.59,624.49 -624.49,624.49 -16.71,0 -33.27,-0.67 -49.65,-1.96l0 -81.93c16.36,1.48 32.91,2.28 49.65,2.28 299.82,0 542.88,-243.05 542.88,-542.88 0,-299.82 -243.06,-542.87 -542.88,-542.87 -299.82,0 -542.87,243.06 -542.87,542.87 0,66.2 11.88,129.63 33.57,188.29l-86.26 0c-18.77,-59.42 -28.92,-122.66 -28.92,-188.29 0,-344.89 279.6,-624.48 624.49,-624.48zm-500.83 834.26c61.03,145.54 183.64,258.86 335.25,307.35l0 85.13c-196.82,-53.99 -354.78,-201.87 -422.76,-392.48l87.51 0z"/>
  <path class="fil0" d="M802.52 257.05c144.5,12.26 257.97,133.42 257.97,281.09 0,155.82 -126.32,282.14 -282.14,282.14 -23.04,0 -45.42,-2.78 -66.86,-7.99l0 -80.61c20.96,7.24 43.45,11.18 66.87,11.18 113.06,0 204.72,-91.66 204.72,-204.72 0,-104.88 -78.88,-191.33 -180.55,-203.29l0 -77.81z"/>
  <rect class="fil0" x="505.71" y="257.04" width="296.88" height="77.83"/>
  <path class="fil0" d="M552.17 594.93l87.02 0 0 650.82c-29.67,-3.01 -58.72,-8.09 -87.02,-15.1l0 -635.71z"/>
  <path class="fil1" d="M1476.78 768.33l93.76 0 0 -165.88 68.51 0c89.55,0 157.47,-30.65 157.47,-130.42 0,-100.97 -73.32,-129.22 -161.67,-129.22l-158.07 0 0 425.52zm93.76 -346.18l48.08 0c36.06,0 80.54,6.01 80.54,49.88 0,39.66 -33.06,51.09 -66.11,51.09l-62.51 0 0 -100.97zm150.72 346.18l103.37 0 35.46 -90.15 165.28 0 36.66 90.15 105.78 0 -185.11 -425.52 -77.53 0 -183.91 425.52zm272.26 -169.49l-103.98 0 51.69 -132.22 52.29 132.22zm181.97 169.49l93.76 0 0 -170.09 46.28 0 88.95 170.09 112.39 0 -108.18 -179.7c60.1,-10.82 91.96,-57.1 91.96,-116.6 0,-99.17 -73.32,-129.22 -160.47,-129.22l-164.68 0 0 425.52zm93.76 -346.18l61.3 0c34.26,0 72.72,6.61 72.72,49.28 0,46.28 -44.47,47.48 -78.73,47.48l-55.29 0 0 -96.76zm216.83 346.18l103.37 0 35.46 -90.15 165.28 0 36.66 90.15 105.78 0 -185.11 -425.52 -77.53 0 -183.91 425.52zm272.26 -169.49l-103.98 0 51.69 -132.22 52.29 132.22zm181.97 169.49l153.26 0c126.81,0 239.2,-73.92 239.2,-211.56 0,-155.66 -114.79,-213.96 -251.83,-213.96l-140.64 0 0 425.52zm93.76 -338.97l55.29 0c79.33,0 146.04,39.07 146.04,122.6 0,96.76 -65.51,129.82 -152.66,129.82l-48.68 0 0 -252.42zm326.21 338.97l93.76 0 0 -425.52 -93.76 0 0 425.52zm529.36 -252.42l-166.48 0 0 86.55 76.33 0 0 69.11c-17.43,9.62 -47.48,21.04 -88.35,21.04 -79.93,0 -132.22,-57.7 -132.22,-137.03 0,-79.33 52.29,-137.03 132.22,-137.03 47.48,0 78.13,13.82 103.37,40.27l66.11 -72.12c-42.67,-39.66 -102.17,-54.69 -169.49,-54.69 -132.82,0 -229.59,87.15 -229.59,223.58 0,136.43 96.76,223.58 229.59,223.58 62.51,0 123.21,-12.02 178.5,-40.87l0 -222.38zm47.35 252.42l93.76 0 0 -326.35 1.2 0 107.58 326.35 71.52 0 111.79 -326.35 1.2 0 0 326.35 93.76 0 0 -425.52 -141.24 0 -98.56 277.67 -1.2 0 -97.96 -277.67 -141.84 0 0 425.52z"/>
  <path class="fil2" d="M1479.48 1108.42l35.96 0 0 -265.21 -35.96 0 0 265.21zm159.58 0l35.96 0 0 -231.5 85.41 0 0 -33.71 -206.78 0 0 33.71 85.41 0 0 231.5zm241.99 -29.97c17.98,25.1 50.57,36.71 84.66,36.71 50.95,0 92.15,-30.71 92.15,-82.04 0,-95.52 -130.73,-55.44 -130.73,-122.49 0,-16.48 11.99,-40.46 51.69,-40.46 20.61,0 38.21,9.37 47.2,23.23l29.22 -26.6c-19.86,-24.35 -47.57,-30.34 -76.42,-30.34 -63.68,0 -89.9,43.08 -89.9,74.17 0,103.39 130.73,65.55 130.73,126.61 0,29.22 -29.22,44.2 -52.82,44.2 -21.35,0 -43.45,-8.99 -56.19,-28.47l-29.59 25.47zm389.2 -46.45l0 -11.99c0,-45.7 -23.97,-93.65 -86.53,-93.65 -53.19,0 -91.77,40.08 -91.77,93.28 0,52.82 35.21,93.27 91.4,93.27 34.09,0 59.93,-11.99 78.67,-36.34l-25.47 -19.48c-13.11,16.11 -28.1,26.6 -48.7,26.6 -31.09,0 -59.93,-20.6 -59.93,-51.69l142.35 0zm-142.35 -26.97c0,-23.6 21.73,-51.69 55.06,-51.69 34.09,0 50.57,22.1 51.32,51.69l-106.38 0zm182.8 103.39l33.71 0 0 -89.15c0,-38.96 17.98,-56.94 50.94,-56.94 5.25,0 10.87,1.12 16.49,2.62l1.5 -36.33c-4.5,-1.5 -9.74,-2.25 -14.98,-2.25 -22.1,0 -44.58,13.11 -53.19,31.84l-0.75 0 0 -27.35 -33.71 0 0 177.56zm189.54 0l37.09 0 69.67 -177.56 -35.96 0 -50.94 135.98 -53.19 -135.98 -38.96 0 72.3 177.56zm138.98 0l33.72 0 0 -177.56 -33.72 0 0 177.56zm-7.87 -241.24c0,13.49 11.24,24.72 24.73,24.72 13.48,0 24.72,-11.24 24.72,-24.72 0,-13.49 -11.24,-24.72 -24.72,-24.72 -13.49,0 -24.73,11.24 -24.73,24.72zm247.61 87.66c-17.61,-19.11 -42.33,-28.1 -68.18,-28.1 -55.44,0 -92.9,38.96 -92.9,93.65 0,54.69 38.21,92.53 92.9,92.53 25.85,0 49.82,-7.87 67.43,-27.35l-23.98 -23.97c-11.24,13.11 -24.35,19.85 -43.08,19.85 -34.83,0 -57.31,-26.97 -57.31,-60.31 0,-33.34 18.73,-62.93 55.44,-62.93 18.73,0 31.84,6.74 44.2,19.85l25.47 -23.22zm195.91 77.17l0 -11.99c0,-45.7 -23.97,-93.65 -86.53,-93.65 -53.19,0 -91.77,40.08 -91.77,93.28 0,52.82 35.21,93.27 91.4,93.27 34.09,0 59.93,-11.99 78.67,-36.34l-25.47 -19.48c-13.11,16.11 -28.1,26.6 -48.7,26.6 -31.09,0 -59.93,-20.6 -59.93,-51.69l142.35 0zm-142.35 -26.97c0,-23.6 21.73,-51.69 55.06,-51.69 34.09,0 50.57,22.1 51.32,51.69l-106.38 0zm303.42 -49.45c-12.74,-20.98 -37.08,-29.22 -60.68,-29.22 -33.34,0 -67.43,17.61 -67.43,54.69 0,34.09 25.47,43.45 54.31,50.57 14.61,3.37 42.7,7.12 42.7,27.34 0,15.36 -18.73,22.48 -35.96,22.48 -19.48,0 -32.22,-10.11 -43.08,-20.98l-25.47 20.98c17.6,23.98 39.33,31.47 68.55,31.47 35.21,0 71.92,-15.73 71.92,-55.81 0,-33.34 -22.48,-44.58 -51.69,-51.69 -14.99,-3.37 -45.33,-6.37 -45.33,-27.72 0,-12.74 13.86,-19.85 29.6,-19.85 16.86,0 28.47,7.87 36.33,17.61l26.22 -19.86z"/>
 </g>
</svg>
