<?xml version="1.0" encoding="UTF-8"?>
<!DOCTYPE svg PUBLIC "-//W3C//DTD SVG 1.1//EN" "http://www.w3.org/Graphics/SVG/1.1/DTD/svg11.dtd">
<!-- Creator: CorelDRAW -->
<svg xmlns="http://www.w3.org/2000/svg" xml:space="preserve" width="7.08406in" height="1.5957in" version="1.1" style="shape-rendering:geometricPrecision; text-rendering:geometricPrecision; image-rendering:optimizeQuality; fill-rule:evenodd; clip-rule:evenodd"
viewBox="0 0 7084.06 1595.7"
 xmlns:xlink="http://www.w3.org/1999/xlink"
 xmlns:xodm="http://www.corel.com/coreldraw/odm/2003">
 <defs>
  <style type="text/css">
   <![CDATA[
    .fil0 {fill:#0ADCD9}
    .fil1 {fill:#084268;fill-rule:nonzero}
    .fil2 {fill:#084268;fill-rule:nonzero}
   ]]>
  </style>
 </defs>
 <g id="Layer_x0020_1">
  <metadata id="CorelCorpID_0Corel-Layer"/>
  <path class="fil0" d="M488.03 864.35c24.05,0 43.55,19.5 43.55,43.55 0,24.06 -19.5,43.55 -43.55,43.55 -22.44,0 -40.92,-16.97 -43.29,-38.78l-444.74 0 0 -9.95 444.79 0c2.56,-21.61 20.94,-38.36 43.24,-38.36z"/>
  <path class="fil0" d="M537.7 1007.2c24.17,0 43.76,19.59 43.76,43.76 0,24.17 -19.59,43.76 -43.76,43.76 -22.55,0 -41.11,-17.06 -43.5,-38.97l-239.24 0 0 -10 239.29 0c2.57,-21.71 21.04,-38.55 43.45,-38.55z"/>
  <path class="fil0" d="M462.46 668.09c24.05,0 43.55,19.5 43.55,43.55 0,24.06 -19.5,43.55 -43.55,43.55 -22.44,0 -40.92,-16.97 -43.29,-38.78l-260.69 0 0 -9.95 260.74 0c2.57,-21.61 20.94,-38.36 43.24,-38.36z"/>
  <path class="fil0" d="M798.42 530.26c26.8,0 48.52,21.72 48.52,48.52 0,26.8 -21.72,48.52 -48.52,48.52 -25.01,0 -45.59,-18.91 -48.24,-43.21l-420.31 0 0 -11.09 420.37 0c2.86,-24.07 23.33,-42.74 48.18,-42.74z"/>
  <path class="fil0" d="M637.96 431.34c22.57,0 40.86,18.3 40.86,40.86 0,22.57 -18.29,40.86 -40.86,40.86 -21.06,0 -38.39,-15.93 -40.62,-36.39l-432.87 0 0 -9.33 432.91 0c2.41,-20.28 19.65,-36 40.57,-36z"/>
  <path class="fil0" d="M418.26 309.31c-22.57,0 -40.86,18.29 -40.86,40.86 0,22.57 18.29,40.86 40.86,40.86 21.06,0 38.39,-15.93 40.61,-36.39l432.87 0 0 -9.34 -432.91 0c-2.41,-20.27 -19.65,-35.99 -40.57,-35.99z"/>
  <circle class="fil0" cx="325.36" cy="578.28" r="39.31"/>
  <rect class="fil0" x="423.38" y="1052.68" width="21.19" height="543.02"/>
  <path class="fil0" d="M775.06 0c380.3,0 688.59,308.29 688.59,688.58 0,380.3 -308.29,688.59 -688.59,688.59 -18.43,0 -36.68,-0.74 -54.74,-2.17l0 -90.34c18.04,1.63 36.28,2.52 54.74,2.52 330.59,0 598.6,-268 598.6,-598.6 0,-330.59 -268,-598.59 -598.6,-598.59 -330.59,0 -598.59,268 -598.59,598.59 0,73 13.09,142.93 37.02,207.61l-95.12 0c-20.7,-65.52 -31.89,-135.25 -31.89,-207.61 0,-380.29 308.3,-688.58 688.59,-688.58zm-552.24 919.89c67.3,160.48 202.49,285.43 369.66,338.9l0 93.87c-217.02,-59.53 -391.2,-222.59 -466.16,-432.77l96.5 0z"/>
  <path class="fil0" d="M884.89 283.44c159.33,13.52 284.44,147.11 284.44,309.94 0,171.81 -139.28,311.1 -311.1,311.1 -25.4,0 -50.09,-3.07 -73.72,-8.81l0 -88.88c23.11,7.98 47.91,12.33 73.73,12.33 124.67,0 225.73,-101.06 225.73,-225.73 0,-115.65 -86.98,-210.96 -199.08,-224.15l0 -85.79z"/>
  <rect class="fil0" x="557.62" y="283.42" width="327.35" height="85.82"/>
  <path class="fil0" d="M608.85 656l95.95 0 0 717.62c-32.72,-3.31 -64.75,-8.92 -95.95,-16.65l0 -700.96z"/>
  <path class="fil1" d="M1709.24 907.52l103.38 0 0 -182.91 75.55 0c98.74,0 173.63,-33.8 173.63,-143.81 0,-111.33 -80.85,-142.48 -178.27,-142.48l-174.29 0 0 469.2zm103.38 -381.72l53.02 0c39.76,0 88.8,6.63 88.8,55 0,43.74 -36.45,56.33 -72.9,56.33l-68.92 0 0 -111.33zm166.19 381.72l113.98 0 39.1 -99.41 182.24 0 40.43 99.41 116.64 0 -204.11 -469.2 -85.49 0 -202.79 469.2zm300.2 -186.88l-114.65 0 56.99 -145.8 57.66 145.8zm200.65 186.88l103.38 0 0 -187.55 51.03 0 98.08 187.55 123.93 0 -119.29 -198.15c66.27,-11.93 101.39,-62.96 101.39,-128.56 0,-109.35 -80.85,-142.48 -176.94,-142.48l-181.58 0 0 469.2zm103.38 -381.72l67.59 0c37.78,0 80.19,7.29 80.19,54.34 0,51.03 -49.04,52.35 -86.81,52.35l-60.97 0 0 -106.69zm239.09 381.72l113.98 0 39.1 -99.41 182.24 0 40.43 99.41 116.64 0 -204.11 -469.2 -85.49 0 -202.79 469.2zm300.2 -186.88l-114.65 0 56.99 -145.8 57.66 145.8zm200.65 186.88l168.99 0c139.83,0 263.76,-81.51 263.76,-233.27 0,-171.64 -126.57,-235.93 -277.67,-235.93l-155.07 0 0 469.2zm103.38 -373.76l60.97 0c87.48,0 161.04,43.07 161.04,135.19 0,106.7 -72.24,143.15 -168.33,143.15l-53.68 0 0 -278.33zm359.7 373.76l103.38 0 0 -469.2 -103.38 0 0 469.2zm583.69 -278.33l-183.57 0 0 95.43 84.16 0 0 76.21c-19.22,10.61 -52.35,23.2 -97.42,23.2 -88.14,0 -145.8,-63.62 -145.8,-151.1 0,-87.48 57.66,-151.09 145.8,-151.09 52.35,0 86.15,15.24 113.98,44.4l72.9 -79.53c-47.05,-43.74 -112.66,-60.3 -186.88,-60.3 -146.46,0 -253.15,96.09 -253.15,246.52 0,150.43 106.7,246.53 253.15,246.53 68.92,0 135.85,-13.26 196.82,-45.06l0 -245.2zm52.2 278.33l103.38 0 0 -359.85 1.32 0 118.63 359.85 78.86 0 123.26 -359.85 1.33 0 0 359.85 103.38 0 0 -469.2 -155.74 0 -108.68 306.17 -1.33 0 -108.02 -306.17 -156.4 0 0 469.2z"/>
  <path class="fil2" d="M5141.92 903.68l39.65 0 0 -292.43 -39.65 0 0 292.43zm175.96 0l39.65 0 0 -255.26 94.17 0 0 -37.17 -228 0 0 37.17 94.17 0 0 255.26zm266.83 -33.04c19.83,27.67 55.76,40.48 93.35,40.48 56.18,0 101.61,-33.87 101.61,-90.46 0,-105.32 -144.15,-61.13 -144.15,-135.06 0,-18.17 13.22,-44.61 57,-44.61 22.72,0 42.13,10.33 52.04,25.61l32.22 -29.33c-21.89,-26.85 -52.46,-33.46 -84.26,-33.46 -70.22,0 -99.13,47.5 -99.13,81.78 0,114 144.15,72.28 144.15,139.61 0,32.22 -32.22,48.74 -58.24,48.74 -23.54,0 -47.91,-9.91 -61.96,-31.39l-32.63 28.09zm429.15 -51.22l0 -13.22c0,-50.39 -26.43,-103.26 -95.41,-103.26 -58.65,0 -101.19,44.2 -101.19,102.85 0,58.24 38.82,102.85 100.78,102.85 37.59,0 66.09,-13.22 86.74,-40.07l-28.09 -21.48c-14.46,17.76 -30.98,29.33 -53.7,29.33 -34.28,0 -66.09,-22.72 -66.09,-57l156.96 0zm-156.96 -29.74c0,-26.02 23.96,-57 60.72,-57 37.59,0 55.76,24.37 56.59,57l-117.3 0zm201.57 114l37.17 0 0 -98.3c0,-42.96 19.83,-62.78 56.17,-62.78 5.78,0 11.98,1.24 18.18,2.89l1.65 -40.06c-4.96,-1.65 -10.74,-2.48 -16.52,-2.48 -24.37,0 -49.15,14.46 -58.65,35.11l-0.83 0 0 -30.15 -37.17 0 0 195.78zm209 0l40.89 0 76.82 -195.78 -39.65 0 -56.17 149.94 -58.65 -149.94 -42.96 0 79.72 195.78zm153.24 0l37.18 0 0 -195.78 -37.18 0 0 195.78zm-8.67 -266c0,14.87 12.39,27.26 27.26,27.26 14.87,0 27.26,-12.39 27.26,-27.26 0,-14.87 -12.39,-27.26 -27.26,-27.26 -14.87,0 -27.26,12.39 -27.26,27.26zm273.02 96.65c-19.41,-21.07 -46.67,-30.98 -75.17,-30.98 -61.13,0 -102.44,42.96 -102.44,103.26 0,60.31 42.13,102.02 102.44,102.02 28.5,0 54.93,-8.67 74.35,-30.15l-26.44 -26.43c-12.39,14.46 -26.85,21.89 -47.5,21.89 -38.41,0 -63.19,-29.74 -63.19,-66.5 0,-36.76 20.65,-69.39 61.13,-69.39 20.65,0 35.11,7.43 48.74,21.89l28.09 -25.61zm216.02 85.09l0 -13.22c0,-50.39 -26.43,-103.26 -95.41,-103.26 -58.65,0 -101.19,44.2 -101.19,102.85 0,58.24 38.82,102.85 100.78,102.85 37.59,0 66.09,-13.22 86.74,-40.07l-28.09 -21.48c-14.46,17.76 -30.98,29.33 -53.7,29.33 -34.28,0 -66.09,-22.72 -66.09,-57l156.96 0zm-156.96 -29.74c0,-26.02 23.96,-57 60.72,-57 37.59,0 55.76,24.37 56.59,57l-117.3 0zm334.57 -54.52c-14.04,-23.13 -40.89,-32.22 -66.91,-32.22 -36.76,0 -74.35,19.41 -74.35,60.31 0,37.59 28.09,47.91 59.89,55.76 16.11,3.72 47.09,7.85 47.09,30.15 0,16.94 -20.65,24.78 -39.65,24.78 -21.48,0 -35.52,-11.15 -47.5,-23.13l-28.09 23.13c19.41,26.44 43.37,34.7 75.59,34.7 38.82,0 79.3,-17.35 79.3,-61.54 0,-36.76 -24.78,-49.15 -57,-57 -16.52,-3.72 -49.98,-7.02 -49.98,-30.57 0,-14.04 15.28,-21.89 32.63,-21.89 18.59,0 31.39,8.67 40.06,19.41l28.91 -21.89z"/>
 </g>
</svg>
