<?xml version="1.0" encoding="UTF-8"?>
<!DOCTYPE svg PUBLIC "-//W3C//DTD SVG 1.1//EN" "http://www.w3.org/Graphics/SVG/1.1/DTD/svg11.dtd">
<svg xmlns="http://www.w3.org/2000/svg" xml:space="preserve" width="7.08406in" height="1.5957in" version="1.1" style="shape-rendering:geometricPrecision; text-rendering:geometricPrecision; image-rendering:optimizeQuality; fill-rule:evenodd; clip-rule:evenodd"
viewBox="0 0 7084.06 1595.7"
xmlns:xlink="http://www.w3.org/1999/xlink"
xmlns:xodm="http://www.corel.com/coreldraw/odm/2003">
<defs>
<style type="text/css">
<![CDATA[
.fil0 {fill:#ffffff}
.fil1 {fill:#ffffff;fill-rule:nonzero}
.fil2 {fill:#ffffff;fill-rule:nonzero}
]]>
</style>
</defs>
<g id="Layer_x0020_1">
<metadata id="CorelCorpID_0Corel-Layer"/>
<path class="fil0" d="M488.03 864.35c24.05,0 43.55,19.5 43.55,43.55 0,24.06 -19.5,43.55 -43.55,43.55 -22.44,0 -40.92,-16.97 -43.29,-38.78l-444.74 0 0 -9.95 444.79 0c2.56,-21.61 20.94,-38.36 43.24,-38.36z"/>
<path class="fil0" d="M537.7 1007.2c24.17,0 43.76,19.59 43.76,43.76 0,24.17 -19.59,43.76 -43.76,43.76 -22.55,0 -41.11,-17.06 -43.5,-38.97l-239.24 0 0 -10 239.29 0c2.57,-21.71 21.04,-38.55 43.45,-38.55z"/>
<path class="fil0" d="M462.46 668.09c24.05,0 43.55,19.5 43.55,43.55 0,24.06 -19.5,43.55 -43.55,43.55 -22.44,0 -40.92,-16.97 -43.29,-38.78l-260.69 0 0 -9.95 260.74 0c2.57,-21.61 20.94,-38.36 43.24,-38.36z"/>
<path class="fil0" d="M798.42 530.26c26.8,0 48.52,21.72 48.52,48.52 0,26.8 -21.72,48.52 -48.52,48.52 -25.01,0 -45.59,-18.91 -48.24,-43.21l-420.31 0 0 -11.09 420.37 0c2.86,-24.07 23.33,-42.74 48.18,-42.74z"/>
<path class="fil0" d="M637.96 431.34c22.57,0 40.86,18.3 40.86,40.86 0,22.57 -18.29,40.86 -40.86,40.86 -21.06,0 -38.39,-15.93 -40.62,-36.39l-432.87 0 0 -9.33 432.91 0c2.41,-20.28 19.65,-36 40.57,-36z"/>
<path class="fil0" d="M418.26 309.31c-22.57,0 -40.86,18.29 -40.86,40.86 0,22.57 18.29,40.86 40.86,40.86 21.06,0 38.39,-15.93 40.61,-36.39l432.87 0 0 -9.34 -432.91 0c-2.41,-20.27 -19.65,-35.99 -40.57,-35.99z"/>
<circle class="fil0" cx="325.36" cy="578.28" r="39.31"/>
<rect class="fil0" x="423.38" y="1052.68" width="21.19" height="543.02"/>
<path class="fil0" d="M775.06 0c380.3,0 688.59,308.29 688.59,688.58 0,380.3 -308.29,688.59 -688.59,688.59 -18.43,0 -36.68,-0.74 -54.74,-2.17l0 -90.34c18.04,1.63 36.28,2.52 54.74,2.52 330.59,0 598.6,-268 598.6,-598.6 0,-330.59 -268,-598.59 -598.6,-598.59 -330.59,0 -598.59,268 -598.59,598.59 0,73 13.09,142.93 37.02,207.61l-95.12 0c-20.7,-65.52 -31.89,-135.25 -31.89,-207.61 0,-380.29 308.3,-688.58 688.59,-688.58zm-552.24 919.89c67.3,160.48 202.49,285.43 369.66,338.9l0 93.87c-217.02,-59.53 -391.2,-222.59 -466.16,-432.77l96.5 0z"/>
<path class="fil0" d="M884.89 283.44c159.33,13.52 284.44,147.11 284.44,309.94 0,171.81 -139.28,311.1 -311.1,311.1 -25.4,0 -50.09,-3.07 -73.72,-8.81l0 -88.88c23.11,7.98 47.91,12.33 73.73,12.33 124.67,0 225.73,-101.06 225.73,-225.73 0,-115.65 -86.98,-210.96 -199.08,-224.15l0 -85.79z"/>
<rect class="fil0" x="557.62" y="283.42" width="327.35" height="85.82"/>
<path class="fil0" d="M608.85 656l95.95 0 0 717.62c-32.72,-3.31 -64.75,-8.92 -95.95,-16.65l0 -700.96z"/>
</g>
</svg>
