<?xml version="1.0" encoding="UTF-8"?>
<!DOCTYPE svg PUBLIC "-//W3C//DTD SVG 1.1//EN" "http://www.w3.org/Graphics/SVG/1.1/DTD/svg11.dtd">
<!-- Creator: CorelDRAW -->
<svg xmlns="http://www.w3.org/2000/svg" xml:space="preserve" width="4.17737in" height="4.18667in" version="1.1" style="shape-rendering:geometricPrecision; text-rendering:geometricPrecision; image-rendering:optimizeQuality; fill-rule:evenodd; clip-rule:evenodd"
viewBox="0 0 1407.73 1410.87"
 xmlns:xlink="http://www.w3.org/1999/xlink"
 xmlns:xodm="http://www.corel.com/coreldraw/odm/2003">
 <defs>
  <style type="text/css">
   <![CDATA[
    .fil1 {fill:#FEFEFE}
    .fil0 {fill:#BDBFC1}
    .fil2 {fill:#FEFEFE;fill-rule:nonzero}
   ]]>
  </style>
 </defs>
 <g id="Layer_x0020_1">
  <metadata id="CorelCorpID_0Corel-Layer"/>
  <rect class="fil0" y="-0" width="1407.73" height="1410.87"/>
  <path class="fil1" d="M514.34 626.95c15.16,0 27.44,12.29 27.44,27.44 0,15.16 -12.29,27.44 -27.44,27.44 -14.14,0 -25.78,-10.7 -27.28,-24.44l-280.25 0 0 -6.27 280.28 0c1.62,-13.61 13.2,-24.17 27.25,-24.17z"/>
  <path class="fil1" d="M545.64 716.96c15.23,0 27.57,12.35 27.57,27.58 0,15.23 -12.35,27.57 -27.57,27.57 -14.21,0 -25.91,-10.75 -27.41,-24.56l-150.76 0 0 -6.3 150.79 0c1.62,-13.68 13.26,-24.29 27.38,-24.29z"/>
  <path class="fil1" d="M498.23 503.28c15.16,0 27.44,12.29 27.44,27.44 0,15.16 -12.29,27.44 -27.44,27.44 -14.14,0 -25.78,-10.7 -27.28,-24.44l-164.27 0 0 -6.27 164.3 0c1.62,-13.62 13.2,-24.17 27.25,-24.17z"/>
  <path class="fil1" d="M709.93 416.42c16.89,0 30.58,13.69 30.58,30.58 0,16.89 -13.69,30.58 -30.58,30.58 -15.76,0 -28.73,-11.92 -30.4,-27.23l-264.86 0 0 -6.99 264.89 0c1.8,-15.17 14.71,-26.94 30.36,-26.94z"/>
  <path class="fil1" d="M608.82 354.09c14.22,0 25.75,11.53 25.75,25.75 0,14.22 -11.53,25.75 -25.75,25.75 -13.27,0 -24.19,-10.04 -25.6,-22.93l-272.77 0 0 -5.88 272.8 0c1.52,-12.78 12.38,-22.68 25.57,-22.68z"/>
  <path class="fil1" d="M470.38 277.19c-14.22,0 -25.75,11.53 -25.75,25.75 0,14.22 11.53,25.75 25.75,25.75 13.27,0 24.19,-10.04 25.59,-22.93l272.77 0 0 -5.88 -272.8 0c-1.52,-12.78 -12.38,-22.68 -25.56,-22.68z"/>
  <circle class="fil1" cx="411.83" cy="446.69" r="24.77"/>
  <rect class="fil1" x="473.6" y="745.63" width="13.35" height="243.64"/>
  <path class="fil1" d="M695.21 82.28c239.64,0 433.91,194.27 433.91,433.91 0,239.64 -194.27,433.91 -433.91,433.91 -11.61,0 -23.11,-0.47 -34.5,-1.37l0 -56.93c11.36,1.03 22.86,1.59 34.5,1.59 208.33,0 377.21,-168.88 377.21,-377.21 0,-208.32 -168.88,-377.21 -377.21,-377.21 -208.32,0 -377.2,168.88 -377.2,377.21 0,46 8.25,90.07 23.33,130.83l-59.94 0c-13.04,-41.29 -20.1,-85.23 -20.1,-130.83 0,-239.64 194.27,-433.91 433.91,-433.91zm-347.99 579.67c42.41,101.12 127.6,179.86 232.94,213.56l0 59.15c-136.76,-37.51 -246.52,-140.27 -293.75,-272.71l60.81 0z"/>
  <path class="fil1" d="M764.42 260.89c100.41,8.52 179.24,92.7 179.24,195.31 0,108.27 -87.77,196.04 -196.04,196.04 -16.01,0 -31.56,-1.93 -46.46,-5.55l0 -56.01c14.56,5.03 30.19,7.77 46.46,7.77 78.56,0 142.24,-63.68 142.24,-142.24 0,-72.87 -54.81,-132.94 -125.45,-141.25l0 -54.06z"/>
  <rect class="fil1" x="558.19" y="260.88" width="206.28" height="54.08"/>
  <path class="fil1" d="M590.48 495.66l60.46 0 0 452.21c-20.62,-2.09 -40.81,-5.62 -60.46,-10.49l0 -441.71z"/>
  <path class="fil2" d="M165.74 1165.42l34.84 0 0 -61.64 25.46 0c33.28,0 58.51,-11.39 58.51,-48.46 0,-37.52 -27.25,-48.02 -60.07,-48.02l-58.73 0 0 158.11zm34.84 -128.63l17.87 0c13.4,0 29.93,2.23 29.93,18.54 0,14.74 -12.28,18.98 -24.57,18.98l-23.23 0 0 -37.52zm56 128.63l38.41 0 13.18 -33.5 61.41 0 13.62 33.5 39.31 0 -68.78 -158.11 -28.81 0 -68.34 158.11zm101.17 -62.98l-38.64 0 19.21 -49.13 19.43 49.13zm67.62 62.98l34.84 0 0 -63.2 17.2 0 33.05 63.2 41.76 0 -40.2 -66.77c22.33,-4.02 34.17,-21.22 34.17,-43.32 0,-36.85 -27.24,-48.02 -59.63,-48.02l-61.19 0 0 158.11zm34.84 -128.63l22.78 0c12.73,0 27.02,2.46 27.02,18.31 0,17.2 -16.53,17.64 -29.25,17.64l-20.55 0 0 -35.95zm80.57 128.63l38.41 0 13.18 -33.5 61.41 0 13.62 33.5 39.31 0 -68.78 -158.11 -28.81 0 -68.34 158.11zm101.17 -62.98l-38.64 0 19.21 -49.13 19.43 49.13zm67.62 62.98l56.95 0c47.12,0 88.88,-27.47 88.88,-78.61 0,-57.84 -42.65,-79.5 -93.57,-79.5l-52.26 0 0 158.11zm34.84 -125.95l20.55 0c29.48,0 54.27,14.52 54.27,45.56 0,35.96 -24.34,48.24 -56.72,48.24l-18.09 0 0 -93.8zm121.21 125.95l34.84 0 0 -158.11 -34.84 0 0 158.11zm196.7 -93.8l-61.86 0 0 32.16 28.36 0 0 25.68c-6.48,3.57 -17.64,7.82 -32.83,7.82 -29.7,0 -49.13,-21.44 -49.13,-50.92 0,-29.48 19.43,-50.92 49.13,-50.92 17.64,0 29.03,5.14 38.41,14.96l24.57 -26.8c-15.86,-14.74 -37.96,-20.32 -62.98,-20.32 -49.35,0 -85.31,32.38 -85.31,83.08 0,50.69 35.96,83.08 85.31,83.08 23.23,0 45.78,-4.47 66.33,-15.19l0 -82.63zm17.59 93.8l34.84 0 0 -121.27 0.45 0 39.98 121.27 26.58 0 41.54 -121.27 0.45 0 0 121.27 34.84 0 0 -158.11 -52.48 0 -36.62 103.18 -0.45 0 -36.4 -103.18 -52.7 0 0 158.11z"/>
  <path class="fil2" d="M384.91 1286.13l13.36 0 0 -98.55 -13.36 0 0 98.55zm59.3 0l13.36 0 0 -86.02 31.74 0 0 -12.53 -76.83 0 0 12.53 31.74 0 0 86.02zm89.92 -11.14c6.68,9.33 18.79,13.64 31.46,13.64 18.93,0 34.24,-11.41 34.24,-30.48 0,-35.49 -48.58,-20.6 -48.58,-45.51 0,-6.12 4.46,-15.03 19.21,-15.03 7.66,0 14.2,3.48 17.54,8.63l10.86 -9.88c-7.38,-9.05 -17.68,-11.27 -28.4,-11.27 -23.66,0 -33.41,16.01 -33.41,27.56 0,38.42 48.58,24.36 48.58,47.05 0,10.86 -10.86,16.42 -19.63,16.42 -7.93,0 -16.15,-3.34 -20.88,-10.58l-11 9.46zm144.62 -17.26l0 -4.45c0,-16.98 -8.91,-34.8 -32.15,-34.8 -19.76,0 -34.1,14.89 -34.1,34.66 0,19.63 13.08,34.66 33.96,34.66 12.67,0 22.27,-4.45 29.23,-13.5l-9.46 -7.24c-4.87,5.98 -10.44,9.88 -18.1,9.88 -11.55,0 -22.27,-7.66 -22.27,-19.21l52.89 0zm-52.89 -10.02c0,-8.77 8.07,-19.21 20.46,-19.21 12.67,0 18.79,8.21 19.07,19.21l-39.53 0zm67.93 38.42l12.53 0 0 -33.13c0,-14.48 6.68,-21.16 18.93,-21.16 1.95,0 4.04,0.42 6.13,0.97l0.56 -13.5c-1.67,-0.56 -3.62,-0.84 -5.57,-0.84 -8.21,0 -16.56,4.87 -19.77,11.83l-0.28 0 0 -10.16 -12.53 0 0 65.98zm70.43 0l13.78 0 25.89 -65.98 -13.36 0 -18.93 50.53 -19.77 -50.53 -14.48 0 26.86 65.98zm51.64 0l12.53 0 0 -65.98 -12.53 0 0 65.98zm-2.92 -89.64c0,5.01 4.18,9.19 9.19,9.19 5.01,0 9.19,-4.18 9.19,-9.19 0,-5.01 -4.18,-9.19 -9.19,-9.19 -5.01,0 -9.19,4.18 -9.19,9.19zm92.01 32.57c-6.54,-7.1 -15.73,-10.44 -25.33,-10.44 -20.6,0 -34.52,14.48 -34.52,34.8 0,20.32 14.2,34.38 34.52,34.38 9.6,0 18.51,-2.92 25.05,-10.16l-8.91 -8.91c-4.18,4.87 -9.05,7.38 -16.01,7.38 -12.94,0 -21.3,-10.02 -21.3,-22.41 0,-12.39 6.96,-23.38 20.6,-23.38 6.96,0 11.83,2.5 16.42,7.38l9.46 -8.63zm72.8 28.67l0 -4.45c0,-16.98 -8.91,-34.8 -32.15,-34.8 -19.76,0 -34.1,14.89 -34.1,34.66 0,19.63 13.08,34.66 33.96,34.66 12.67,0 22.27,-4.45 29.23,-13.5l-9.46 -7.24c-4.87,5.98 -10.44,9.88 -18.1,9.88 -11.55,0 -22.27,-7.66 -22.27,-19.21l52.89 0zm-52.89 -10.02c0,-8.77 8.07,-19.21 20.46,-19.21 12.67,0 18.79,8.21 19.07,19.21l-39.53 0zm112.75 -18.37c-4.73,-7.79 -13.78,-10.86 -22.55,-10.86 -12.39,0 -25.05,6.54 -25.05,20.32 0,12.67 9.46,16.15 20.18,18.79 5.43,1.25 15.87,2.64 15.87,10.16 0,5.71 -6.96,8.35 -13.36,8.35 -7.24,0 -11.97,-3.76 -16.01,-7.79l-9.46 7.79c6.54,8.91 14.61,11.69 25.47,11.69 13.08,0 26.72,-5.85 26.72,-20.74 0,-12.39 -8.35,-16.56 -19.21,-19.21 -5.57,-1.25 -16.84,-2.37 -16.84,-10.3 0,-4.73 5.15,-7.38 11,-7.38 6.26,0 10.58,2.92 13.5,6.54l9.74 -7.38z"/>
 </g>
</svg>
