<?xml version="1.0" encoding="UTF-8"?>
<!DOCTYPE svg PUBLIC "-//W3C//DTD SVG 1.1//EN" "http://www.w3.org/Graphics/SVG/1.1/DTD/svg11.dtd">
<!-- Creator: CorelDRAW -->
<svg xmlns="http://www.w3.org/2000/svg" xml:space="preserve" width="3.24289in" height="2.30996in" version="1.1" style="shape-rendering:geometricPrecision; text-rendering:geometricPrecision; image-rendering:optimizeQuality; fill-rule:evenodd; clip-rule:evenodd"
viewBox="0 0 1439.2 1025.17"
 xmlns:xlink="http://www.w3.org/1999/xlink"
 xmlns:xodm="http://www.corel.com/coreldraw/odm/2003">
 <defs>
  <style type="text/css">
   <![CDATA[
    .fil0 {fill:#0ADCD9}
    .fil1 {fill:#084268;fill-rule:nonzero}
    .fil2 {fill:#084268;fill-rule:nonzero}
   ]]>
  </style>
 </defs>
 <g id="Layer_x0020_1">
  <metadata id="CorelCorpID_0Corel-Layer"/>
  <path class="fil0" d="M611.4 383.6c10.67,0 19.33,8.65 19.33,19.33 0,10.68 -8.65,19.33 -19.33,19.33 -9.96,0 -18.16,-7.53 -19.21,-17.21l-197.38 0 0 -4.42 197.4 0c1.14,-9.59 9.3,-17.03 19.19,-17.03z"/>
  <path class="fil0" d="M633.44 447c10.73,0 19.42,8.69 19.42,19.42 0,10.73 -8.69,19.42 -19.42,19.42 -10.01,0 -18.25,-7.57 -19.31,-17.3l-106.18 0 0 -4.44 106.2 0c1.14,-9.64 9.34,-17.11 19.28,-17.11z"/>
  <path class="fil0" d="M600.05 296.5c10.67,0 19.33,8.65 19.33,19.33 0,10.68 -8.65,19.33 -19.33,19.33 -9.96,0 -18.16,-7.53 -19.21,-17.21l-115.69 0 0 -4.42 115.72 0c1.14,-9.59 9.3,-17.03 19.19,-17.03z"/>
  <path class="fil0" d="M749.15 235.33c11.89,0 21.53,9.64 21.53,21.53 0,11.9 -9.64,21.53 -21.53,21.53 -11.1,0 -20.23,-8.39 -21.41,-19.18l-186.53 0 0 -4.92 186.56 0c1.27,-10.68 10.36,-18.97 21.38,-18.97z"/>
  <path class="fil0" d="M677.94 191.43c10.02,0 18.13,8.12 18.13,18.13 0,10.02 -8.12,18.13 -18.13,18.13 -9.35,0 -17.04,-7.07 -18.03,-16.15l-192.11 0 0 -4.14 192.13 0c1.07,-9 8.72,-15.98 18.01,-15.98z"/>
  <path class="fil0" d="M580.44 137.27c-10.02,0 -18.13,8.12 -18.13,18.13 0,10.02 8.12,18.13 18.13,18.13 9.34,0 17.04,-7.07 18.02,-16.15l192.11 0 0 -4.14 -192.13 0c-1.07,-9 -8.72,-15.97 -18.01,-15.97z"/>
  <circle class="fil0" cx="539.21" cy="256.64" r="17.45"/>
  <rect class="fil0" x="582.71" y="467.18" width="9.4" height="158.39"/>
  <path class="fil0" d="M738.79 0c168.78,0 305.6,136.82 305.6,305.59 0,168.78 -136.82,305.6 -305.6,305.6 -8.18,0 -16.28,-0.33 -24.3,-0.96l0 -40.09c8,0.73 16.1,1.12 24.3,1.12 146.72,0 265.66,-118.94 265.66,-265.66 0,-146.72 -118.94,-265.66 -265.66,-265.66 -146.72,0 -265.66,118.94 -265.66,265.66 0,32.4 5.81,63.43 16.43,92.14l-42.21 0c-9.19,-29.08 -14.15,-60.03 -14.15,-92.14 0,-168.77 136.82,-305.59 305.6,-305.59zm-245.08 408.25c29.87,71.22 89.87,126.67 164.06,150.41l0 41.66c-96.32,-26.42 -173.62,-98.79 -206.88,-192.06l42.83 0z"/>
  <path class="fil0" d="M787.53 125.79c70.71,6 126.24,65.29 126.24,137.55 0,76.25 -61.81,138.07 -138.07,138.07 -11.27,0 -22.23,-1.36 -32.72,-3.91l0 -39.45c10.25,3.54 21.26,5.47 32.72,5.47 55.33,0 100.18,-44.85 100.18,-100.18 0,-51.32 -38.6,-93.63 -88.35,-99.48l0 -38.07z"/>
  <rect class="fil0" x="642.29" y="125.78" width="145.28" height="38.09"/>
  <path class="fil0" d="M665.02 291.13l42.58 0 0 318.48c-14.52,-1.47 -28.74,-3.96 -42.58,-7.39l0 -311.09z"/>
  <path class="fil1" d="M-0 862.89l45.88 0 0 -81.17 33.53 0c43.82,0 77.06,-15 77.06,-63.82 0,-49.41 -35.88,-63.23 -79.12,-63.23l-77.35 0 0 208.23zm45.88 -169.41l23.53 0c17.65,0 39.41,2.94 39.41,24.41 0,19.41 -16.18,25 -32.35,25l-30.59 0 0 -49.41zm73.75 169.41l50.59 0 17.35 -44.12 80.88 0 17.94 44.12 51.76 0 -90.59 -208.23 -37.94 0 -90 208.23zm133.23 -82.94l-50.88 0 25.29 -64.7 25.59 64.7zm89.05 82.94l45.88 0 0 -83.23 22.65 0 43.53 83.23 55 0 -52.94 -87.94c29.41,-5.29 45,-27.94 45,-57.06 0,-48.53 -35.88,-63.23 -78.53,-63.23l-80.58 0 0 208.23zm45.88 -169.41l30 0c16.76,0 35.59,3.23 35.59,24.12 0,22.65 -21.76,23.23 -38.53,23.23l-27.06 0 0 -47.35zm106.11 169.41l50.59 0 17.35 -44.12 80.88 0 17.94 44.12 51.76 0 -90.59 -208.23 -37.94 0 -90 208.23zm133.23 -82.94l-50.88 0 25.29 -64.7 25.59 64.7zm89.05 82.94l75 0c62.06,0 117.06,-36.18 117.06,-103.53 0,-76.17 -56.17,-104.7 -123.23,-104.7l-68.82 0 0 208.23zm45.88 -165.88l27.06 0c38.82,0 71.47,19.12 71.47,60 0,47.35 -32.06,63.53 -74.7,63.53l-23.82 0 0 -123.53zm159.63 165.88l45.88 0 0 -208.23 -45.88 0 0 208.23zm259.04 -123.53l-81.47 0 0 42.35 37.35 0 0 33.82c-8.53,4.71 -23.23,10.29 -43.23,10.29 -39.12,0 -64.7,-28.24 -64.7,-67.06 0,-38.82 25.59,-67.06 64.7,-67.06 23.23,0 38.24,6.76 50.59,19.71l32.35 -35.29c-20.88,-19.41 -50,-26.76 -82.94,-26.76 -65,0 -112.35,42.65 -112.35,109.41 0,66.76 47.35,109.41 112.35,109.41 30.59,0 60.29,-5.88 87.35,-20l0 -108.82zm23.17 123.53l45.88 0 0 -159.7 0.59 0 52.65 159.7 35 0 54.7 -159.7 0.59 0 0 159.7 45.88 0 0 -208.23 -69.12 0 -48.23 135.88 -0.59 0 -47.94 -135.88 -69.41 0 0 208.23z"/>
  <path class="fil2" d="M288.64 1021.87l17.6 0 0 -129.78 -17.6 0 0 129.78zm78.09 0l17.6 0 0 -113.28 41.79 0 0 -16.5 -101.19 0 0 16.5 41.79 0 0 113.28zm118.42 -14.66c8.8,12.28 24.75,17.96 41.43,17.96 24.93,0 45.09,-15.03 45.09,-40.14 0,-46.74 -63.98,-27.13 -63.98,-59.94 0,-8.07 5.87,-19.8 25.3,-19.8 10.08,0 18.7,4.58 23.1,11.37l14.3 -13.02c-9.72,-11.91 -23.28,-14.85 -37.4,-14.85 -31.16,0 -43.99,21.08 -43.99,36.3 0,50.59 63.98,32.08 63.98,61.96 0,14.3 -14.3,21.63 -25.85,21.63 -10.45,0 -21.26,-4.4 -27.5,-13.93l-14.48 12.46zm190.46 -22.73l0 -5.87c0,-22.36 -11.73,-45.83 -42.34,-45.83 -26.03,0 -44.91,19.61 -44.91,45.65 0,25.85 17.23,45.64 44.73,45.64 16.68,0 29.33,-5.87 38.5,-17.78l-12.46 -9.53c-6.42,7.88 -13.75,13.02 -23.83,13.02 -15.22,0 -29.33,-10.08 -29.33,-25.3l69.66 0zm-69.66 -13.2c0,-11.55 10.63,-25.3 26.95,-25.3 16.68,0 24.75,10.82 25.11,25.3l-52.06 0zm89.46 50.59l16.5 0 0 -43.63c0,-19.06 8.8,-27.86 24.93,-27.86 2.57,0 5.32,0.55 8.07,1.28l0.73 -17.78c-2.2,-0.73 -4.76,-1.1 -7.33,-1.1 -10.82,0 -21.81,6.42 -26.03,15.58l-0.37 0 0 -13.38 -16.5 0 0 86.89zm92.75 0l18.15 0 34.09 -86.89 -17.6 0 -24.93 66.54 -26.03 -66.54 -19.06 0 35.38 86.89zm68.01 0l16.5 0 0 -86.89 -16.5 0 0 86.89zm-3.85 -118.05c0,6.6 5.5,12.1 12.1,12.1 6.6,0 12.1,-5.5 12.1,-12.1 0,-6.6 -5.5,-12.1 -12.1,-12.1 -6.6,0 -12.1,5.5 -12.1,12.1zm121.17 42.89c-8.62,-9.35 -20.71,-13.75 -33.36,-13.75 -27.13,0 -45.46,19.06 -45.46,45.83 0,26.76 18.7,45.28 45.46,45.28 12.65,0 24.38,-3.85 33,-13.38l-11.73 -11.73c-5.5,6.42 -11.91,9.71 -21.08,9.71 -17.05,0 -28.05,-13.2 -28.05,-29.51 0,-16.31 9.16,-30.8 27.13,-30.8 9.17,0 15.58,3.3 21.63,9.71l12.46 -11.36zm95.87 37.76l0 -5.87c0,-22.36 -11.73,-45.83 -42.34,-45.83 -26.03,0 -44.91,19.61 -44.91,45.65 0,25.85 17.23,45.64 44.73,45.64 16.68,0 29.33,-5.87 38.5,-17.78l-12.46 -9.53c-6.42,7.88 -13.75,13.02 -23.83,13.02 -15.22,0 -29.33,-10.08 -29.33,-25.3l69.66 0zm-69.66 -13.2c0,-11.55 10.63,-25.3 26.95,-25.3 16.68,0 24.75,10.82 25.11,25.3l-52.06 0zm148.48 -24.2c-6.23,-10.27 -18.15,-14.3 -29.7,-14.3 -16.31,0 -33,8.62 -33,26.76 0,16.68 12.46,21.26 26.58,24.75 7.15,1.65 20.9,3.48 20.9,13.38 0,7.52 -9.16,11 -17.6,11 -9.53,0 -15.77,-4.95 -21.08,-10.27l-12.46 10.27c8.61,11.73 19.25,15.4 33.55,15.4 17.23,0 35.19,-7.7 35.19,-27.31 0,-16.31 -11,-21.81 -25.3,-25.3 -7.33,-1.65 -22.18,-3.12 -22.18,-13.57 0,-6.23 6.78,-9.71 14.48,-9.71 8.25,0 13.93,3.85 17.78,8.62l12.83 -9.72z"/>
 </g>
</svg>
