<?xml version="1.0" encoding="UTF-8"?>
<!DOCTYPE svg PUBLIC "-//W3C//DTD SVG 1.1//EN" "http://www.w3.org/Graphics/SVG/1.1/DTD/svg11.dtd">
<!-- Creator: CorelDRAW -->
<svg xmlns="http://www.w3.org/2000/svg" xml:space="preserve" width="3.24289in" height="3.5798in" version="1.1" style="shape-rendering:geometricPrecision; text-rendering:geometricPrecision; image-rendering:optimizeQuality; fill-rule:evenodd; clip-rule:evenodd"
viewBox="0 0 12804.6 14134.91"
 xmlns:xlink="http://www.w3.org/1999/xlink"
 xmlns:xodm="http://www.corel.com/coreldraw/odm/2003">
 <defs>
  <style type="text/css">
   <![CDATA[
    .fil0 {fill:#0ADCD9}
    .fil1 {fill:#084268;fill-rule:nonzero}
    .fil2 {fill:#084268;fill-rule:nonzero}
   ]]>
  </style>
 </defs>
 <g id="Layer_x0020_1">
  <metadata id="CorelCorpID_0Corel-Layer"/>
  <path class="fil0" d="M4084.62 6381.9c177.61,0 321.56,143.95 321.56,321.54 0,177.59 -143.95,321.56 -321.56,321.56 -165.71,0 -302.11,-125.34 -319.63,-286.38l-3283.72 0 0 -73.48 3284.08 0c18.93,-159.53 154.65,-283.24 319.27,-283.24z"/>
  <path class="fil0" d="M4451.34 7436.59c178.45,0 323.09,144.65 323.09,323.11 0,178.45 -144.65,323.09 -323.09,323.09 -166.52,0 -303.59,-125.93 -321.18,-287.76l-1766.42 0 0 -73.82 1766.78 0c19.03,-160.32 155.39,-284.62 320.83,-284.62z"/>
  <path class="fil0" d="M3895.79 4932.82c177.59,0 321.54,143.95 321.54,321.54 0,177.61 -143.95,321.56 -321.54,321.56 -165.71,0 -302.11,-125.33 -319.63,-286.38l-1924.8 0 0 -73.47 1925.15 0c18.93,-159.54 154.65,-283.25 319.27,-283.25z"/>
  <path class="fil0" d="M6376.38 3915.14c197.88,0 358.27,160.4 358.27,358.29 0,197.88 -160.4,358.27 -358.27,358.27 -184.65,0 -336.63,-139.64 -356.16,-319.08l-3103.34 0 0 -81.86 3103.74 0c21.1,-177.78 172.32,-315.62 355.76,-315.62z"/>
  <path class="fil0" d="M5191.65 3184.82c166.62,0 301.69,135.06 301.69,301.69 0,166.62 -135.07,301.69 -301.69,301.69 -155.48,0 -283.45,-117.6 -299.9,-268.69l-3196.05 0 0 -68.94 3196.39 0c17.77,-149.69 145.08,-265.75 299.56,-265.75z"/>
  <path class="fil0" d="M3569.49 2283.75c-166.63,0 -301.69,135.06 -301.69,301.69 0,166.63 135.06,301.69 301.69,301.69 155.48,0 283.44,-117.59 299.89,-268.69l3196.05 0 0 -68.93 -3196.39 0c-17.75,-149.69 -145.08,-265.76 -299.54,-265.76z"/>
  <circle class="fil0" cx="2883.54" cy="4269.74" r="290.23"/>
  <rect class="fil0" x="3607.26" y="7772.41" width="156.44" height="2854.75"/>
  <path class="fil0" d="M6203.9 0c2807.9,0 5084.14,2276.28 5084.14,5084.14 0,2807.9 -2276.24,5084.14 -5084.14,5084.14 -136.05,0 -270.82,-5.5 -404.18,-16l0 -667c133.15,12.06 267.88,18.58 404.18,18.58 2440.95,0 4419.72,-1978.78 4419.72,-4419.72 0,-2440.92 -1978.77,-4419.72 -4419.72,-4419.72 -2440.92,0 -4419.7,1978.8 -4419.7,4419.72 0,538.99 96.69,1055.34 273.33,1532.91l-702.29 0c-152.81,-483.74 -235.47,-998.65 -235.47,-1532.91 0,-2807.86 2276.26,-5084.14 5084.12,-5084.14zm-4077.41 6791.95c496.91,1184.85 1495.11,2107.41 2729.38,2502.24l0 693.07c-1602.38,-439.56 -2888.42,-1643.49 -3441.85,-3195.32l712.47 0z"/>
  <path class="fil0" d="M7014.8 2092.75c1176.46,99.86 2100.19,1086.22 2100.19,2288.45 0,1268.61 -1028.39,2297 -2297,2297 -187.55,0 -369.81,-22.65 -544.34,-65.07l0 -656.25c170.59,58.93 353.72,91.02 544.35,91.02 920.49,0 1666.68,-746.19 1666.68,-1666.66 0,-853.88 -642.16,-1557.66 -1469.89,-1655.04l0 -633.44z"/>
  <rect class="fil0" x="4598.42" y="2092.65" width="2416.98" height="633.67"/>
  <path class="fil0" d="M4976.68 4843.53l708.45 0 0 5298.5c-241.56,-24.48 -478.11,-65.87 -708.45,-122.96l0 -5175.53z"/>
  <path class="fil1" d="M-0 12691.12l408.21 0 0 -722.21 298.3 0c389.89,0 685.58,-133.46 685.58,-567.83 0,-439.61 -319.24,-562.6 -703.89,-562.6l-688.19 0 0 1852.63zm408.21 -1507.22l209.33 0c156.99,0 350.64,26.16 350.64,217.18 0,172.69 -143.92,222.42 -287.84,222.42l-272.14 0 0 -439.61zm656.2 1507.22l450.07 0 154.38 -392.5 719.59 0 159.62 392.5 460.55 0 -805.95 -1852.63 -337.55 0 -800.71 1852.63zm1185.36 -737.91l-452.7 0 225.03 -575.68 227.66 575.68zm792.27 737.91l408.21 0 0 -740.53 201.48 0 387.27 740.53 489.32 0 -471.01 -782.4c261.67,-47.1 400.36,-248.59 400.36,-507.63 0,-431.76 -319.22,-562.6 -698.65,-562.6l-716.97 0 0 1852.63zm408.21 -1507.22l266.9 0c149.16,0 316.61,28.77 316.61,214.56 0,201.5 -193.63,206.72 -342.78,206.72l-240.74 0 0 -421.28zm944.04 1507.22l450.07 0 154.38 -392.5 719.59 0 159.62 392.5 460.55 0 -805.95 -1852.63 -337.55 0 -800.71 1852.63zm1185.36 -737.91l-452.7 0 225.03 -575.68 227.66 575.68zm792.27 737.91l667.25 0c552.12,0 1041.45,-321.85 1041.45,-921.08 0,-677.73 -499.78,-931.56 -1096.4,-931.56l-612.3 0 0 1852.63zm408.21 -1475.81l240.74 0c345.4,0 635.85,170.08 635.85,533.8 0,421.29 -285.23,565.21 -664.64,565.21l-211.95 0 0 -1099.01zm1420.27 1475.81l408.21 0 0 -1852.63 -408.21 0 0 1852.63zm2304.72 -1099.01l-724.82 0 0 376.8 332.31 0 0 300.91c-75.88,41.88 -206.72,91.59 -384.65,91.59 -348.01,0 -575.68,-251.21 -575.68,-596.62 0,-345.4 227.66,-596.6 575.68,-596.6 206.72,0 340.18,60.18 450.07,175.32l287.84 -314.02c-185.78,-172.69 -444.83,-238.11 -737.91,-238.11 -578.29,0 -999.58,379.42 -999.58,973.4 0,593.99 421.29,973.42 999.58,973.42 272.14,0 536.42,-52.34 777.16,-177.93l0 -968.18zm206.13 1099.01l408.21 0 0 -1420.88 5.22 0 468.4 1420.88 311.39 0 486.69 -1420.88 5.24 0 0 1420.88 408.21 0 0 -1852.63 -614.93 0 -429.13 1208.93 -5.24 0 -426.52 -1208.93 -617.54 0 0 1852.63z"/>
  <path class="fil2" d="M2568.02 14105.56l156.57 0 0 -1154.68 -156.57 0 0 1154.68zm694.77 0l156.57 0 0 -1007.9 371.84 0 0 -146.78 -900.26 0 0 146.78 371.84 0 0 1007.9zm1053.57 -130.47c78.29,109.27 220.17,159.82 368.58,159.82 221.82,0 401.21,-133.72 401.21,-357.17 0,-415.87 -569.19,-241.37 -569.19,-533.3 0,-71.76 52.2,-176.14 225.07,-176.14 89.71,0 166.37,40.78 205.49,101.12l127.22 -115.8c-86.45,-106 -207.13,-132.1 -332.72,-132.1 -277.25,0 -391.42,187.55 -391.42,322.92 0,450.13 569.19,285.41 569.19,551.25 0,127.21 -127.21,192.44 -229.96,192.44 -92.96,0 -189.19,-39.14 -244.64,-123.94l-128.84 110.9zm1694.52 -202.23l0 -52.19c0,-198.98 -104.37,-407.74 -376.74,-407.74 -231.58,0 -399.56,174.51 -399.56,406.11 0,229.95 153.29,406.09 397.93,406.09 148.41,0 260.94,-52.19 342.5,-158.21l-110.9 -84.8c-57.08,70.13 -122.33,115.8 -212.02,115.8 -135.37,0 -260.94,-89.7 -260.94,-225.07l619.75 0zm-619.75 -117.43c0,-102.75 94.59,-225.07 239.74,-225.07 148.41,0 220.18,96.23 223.43,225.07l-463.17 0zm795.89 450.13l146.78 0 0 -388.15c0,-169.62 78.29,-247.9 221.8,-247.9 22.84,0 47.3,4.9 71.77,11.41l6.51 -158.19c-19.57,-6.53 -42.39,-9.79 -65.23,-9.79 -96.23,0 -194.08,57.08 -231.59,138.63l-3.26 0 0 -119.06 -146.78 0 0 773.06zm825.24 0l161.47 0 303.34 -773.06 -156.56 0 -221.8 592.03 -231.59 -592.03 -169.62 0 314.76 773.06zm605.07 0l146.79 0 0 -773.06 -146.79 0 0 773.06zm-34.25 -1050.31c0,58.71 48.94,107.64 107.65,107.64 58.7,0 107.64,-48.92 107.64,-107.64 0,-58.71 -48.94,-107.64 -107.64,-107.64 -58.71,0 -107.65,48.92 -107.65,107.64zm1078.04 381.64c-76.65,-83.18 -184.29,-122.33 -296.82,-122.33 -241.39,0 -404.47,169.62 -404.47,407.72 0,238.12 166.35,402.84 404.47,402.84 112.53,0 216.9,-34.25 293.56,-119.06l-104.39 -104.37c-48.92,57.08 -106,86.43 -187.55,86.43 -151.66,0 -249.52,-117.41 -249.52,-262.58 0,-145.15 81.54,-273.99 241.37,-273.99 81.55,0 138.62,29.35 192.45,86.43l110.9 -101.11zm852.96 335.97l0 -52.19c0,-198.98 -104.37,-407.74 -376.74,-407.74 -231.58,0 -399.56,174.51 -399.56,406.11 0,229.95 153.29,406.09 397.93,406.09 148.41,0 260.94,-52.19 342.5,-158.21l-110.9 -84.8c-57.08,70.13 -122.33,115.8 -212.02,115.8 -135.37,0 -260.94,-89.7 -260.94,-225.07l619.75 0zm-619.75 -117.43c0,-102.75 94.59,-225.07 239.74,-225.07 148.41,0 220.18,96.23 223.43,225.07l-463.17 0zm1321.04 -215.29c-55.45,-91.33 -161.45,-127.21 -264.21,-127.21 -145.15,0 -293.56,76.65 -293.56,238.12 0,148.41 110.9,189.17 236.48,220.17 63.61,14.67 185.92,30.98 185.92,119.05 0,66.88 -81.54,97.86 -156.56,97.86 -84.82,0 -140.27,-44.02 -187.55,-91.33l-110.9 91.33c76.64,104.39 171.23,137 298.46,137 153.29,0 313.13,-68.49 313.13,-243.01 0,-145.15 -97.86,-194.08 -225.07,-225.07 -65.24,-14.67 -197.35,-27.73 -197.35,-120.69 0,-55.45 60.35,-86.43 128.86,-86.43 73.39,0 123.94,34.25 158.19,76.65l114.17 -86.45z"/>
 </g>
</svg>
